<svg width="40" height="40" viewBox="0 0 40 40" fill="none" xmlns="http://www.w3.org/2000/svg">
<g clip-path="url(#clip0_93_8)">
<path d="M34.962 13.5733L36.3682 13.5788V13.5733H34.962ZM5.0373 13.5733H3.63106L3.63108 13.5788L5.0373 13.5733ZM33.3105 16.5689L32.2371 17.4773L32.3957 17.6648L32.6087 17.7874L33.3105 16.5689ZM32.8017 14.1975C32.1756 13.7379 31.2955 13.8728 30.8359 14.4988C30.3762 15.1248 30.5112 16.0049 31.1371 16.4645L32.8017 14.1975ZM8.86208 16.4645C9.48809 16.0049 9.62295 15.1248 9.16331 14.4988C8.70366 13.8728 7.82355 13.7379 7.19754 14.1975L8.86208 16.4645ZM19.9996 7.18688C18.5519 7.18688 17.7316 7.26388 17.0816 7.34375C16.4449 7.422 16.1214 7.47963 15.511 7.47963V10.2921C16.3369 10.2921 16.8699 10.2034 17.4245 10.1352C17.9658 10.0687 18.6717 9.99932 19.9996 9.99932V7.18688ZM19.9996 9.99932C21.3276 9.99932 22.0334 10.0687 22.5747 10.1352C23.1293 10.2034 23.6625 10.2921 24.4883 10.2921V7.47963C23.8778 7.47963 23.5545 7.422 22.9176 7.34375C22.2677 7.26388 21.4473 7.18688 19.9996 7.18688V9.99932ZM24.4883 10.2921C24.8874 10.2921 25.2602 10.1785 25.5296 10.0786C25.8215 9.9705 26.1236 9.82752 26.4135 9.67819C26.9851 9.38371 27.6489 8.99018 28.2573 8.63977C28.8927 8.2739 29.4944 7.939 30.0329 7.69565C30.6098 7.43497 30.9398 7.36265 31.0718 7.36265V4.55021C30.3059 4.55021 29.5137 4.84409 28.8749 5.13267C28.1979 5.43859 27.4903 5.83604 26.8539 6.20252C26.1905 6.58449 25.62 6.92329 25.1254 7.17808C24.8822 7.30339 24.6934 7.38926 24.5528 7.44131C24.3898 7.50168 24.3885 7.47963 24.4883 7.47963V10.2921ZM31.0718 7.36265C31.7172 7.36265 32.3368 7.55493 32.7722 7.93C33.1688 8.27154 33.5558 8.8855 33.5558 10.0579H36.3682C36.3682 8.18353 35.7077 6.74675 34.608 5.79925C33.5471 4.88528 32.2217 4.55021 31.0718 4.55021V7.36265ZM33.5558 10.0579V13.5733H36.3682V10.0579H33.5558ZM15.511 7.47963C15.6108 7.47963 15.6095 7.50168 15.4465 7.44131C15.306 7.38926 15.1171 7.30337 14.8739 7.17806C14.3794 6.92326 13.8087 6.58441 13.1454 6.20245C12.509 5.83593 11.8014 5.43844 11.1243 5.1325C10.4856 4.8439 9.6933 4.55 8.92749 4.55V7.36245C9.05942 7.36245 9.38928 7.43475 9.96626 7.69546C10.5049 7.93883 11.1065 8.27374 11.7419 8.63963C12.3504 8.99006 13.0141 9.38364 13.5857 9.67814C13.8755 9.82748 14.1776 9.97048 14.4696 10.0786C14.7391 10.1785 15.1119 10.2921 15.511 10.2921V7.47963ZM8.92749 4.55C7.77745 4.55 6.45211 4.88508 5.39124 5.79903C4.29146 6.74652 3.63108 8.18332 3.63108 10.0577H6.44352C6.44352 8.88527 6.8305 8.27134 7.22694 7.92979C7.66231 7.55471 8.28207 7.36245 8.92749 7.36245V4.55ZM3.63108 10.0577L3.63106 13.5733H6.44352V10.0577H3.63108ZM19.9996 35.4869C22.6827 35.4869 26.6371 34.9533 29.9761 33.4173C33.3184 31.8798 36.3682 29.1559 36.3682 24.7059H33.5558C33.5558 27.5798 31.6679 29.5433 28.8007 30.8623C25.9303 32.1826 22.4037 32.6744 19.9996 32.6744V35.4869ZM34.3841 15.6607C33.9437 15.1401 33.4196 14.6513 32.8017 14.1975L31.1371 16.4645C31.5884 16.7959 31.948 17.1357 32.2371 17.4773L34.3841 15.6607ZM33.5558 13.5677C33.5543 13.9394 33.4783 14.7124 33.2961 15.2467C33.1945 15.5446 33.136 15.5375 33.2419 15.4527C33.3259 15.3852 33.481 15.3011 33.6872 15.2907C33.8839 15.2807 34.0018 15.3442 34.0125 15.3504L32.6087 17.7874C32.9475 17.9826 33.3628 18.123 33.8291 18.0996C34.305 18.0754 34.7016 17.8872 35.0017 17.6464C35.5395 17.215 35.8113 16.5846 35.958 16.1545C36.2724 15.2328 36.366 14.13 36.3682 13.5788L33.5558 13.5677ZM19.9996 32.6744C17.5955 32.6744 14.0688 32.1826 11.1984 30.8623C8.33133 29.5434 6.44351 27.5798 6.44351 24.7059H3.63106C3.63106 29.1559 6.68078 31.8798 10.0231 33.4173C13.362 34.9533 17.3163 35.4869 19.9996 35.4869V32.6744ZM6.44351 24.7059C6.44351 23.2282 6.33766 22.0113 6.47905 20.7167C6.61122 19.5066 6.95387 18.4324 7.76211 17.4773L5.61509 15.6607C4.33856 17.1693 3.85553 18.8338 3.68324 20.4113C3.52018 21.9043 3.63106 23.5239 3.63106 24.7059H6.44351ZM7.76211 17.4773C8.05117 17.1357 8.41075 16.7959 8.86208 16.4645L7.19754 14.1975C6.57952 14.6513 6.05548 15.1401 5.61509 15.6607L7.76211 17.4773ZM3.63108 13.5788C3.63326 14.13 3.72682 15.2327 4.04125 16.1545C4.18793 16.5846 4.45965 17.215 4.99752 17.6464C5.2976 17.8872 5.6942 18.0754 6.1701 18.0996C6.63631 18.123 7.05167 17.9826 7.39049 17.7874L5.98671 15.3504C5.99745 15.3442 6.11526 15.2807 6.31192 15.2907C6.51826 15.3011 6.67334 15.3852 6.75737 15.4527C6.86316 15.5375 6.80475 15.5446 6.70311 15.2467C6.52089 14.7124 6.44497 13.9394 6.44351 13.5677L3.63108 13.5788Z" fill="black"/>
<path d="M21.5483 26.5808C21.5483 26.9044 20.8714 27.1667 20.0363 27.1667C19.2012 27.1667 18.5242 26.9044 18.5242 26.5808C18.5242 26.2572 19.2012 25.9949 20.0363 25.9949C20.8714 25.9949 21.5483 26.2572 21.5483 26.5808Z" fill="black" stroke="black" stroke-width="3"/>
<path d="M26.562 22.0693C26.562 22.8781 26.1558 23.534 25.6547 23.534C25.1537 23.534 24.7476 22.8781 24.7476 22.0693C24.7476 21.2602 25.1537 20.6044 25.6547 20.6044C26.1558 20.6044 26.562 21.2602 26.562 22.0693Z" fill="black" stroke="black" stroke-width="3"/>
<path d="M15.3123 22.0693C15.3123 22.8781 14.9061 23.534 14.405 23.534C13.904 23.534 13.4978 22.8781 13.4978 22.0693C13.4978 21.2602 13.904 20.6044 14.405 20.6044C14.9061 20.6044 15.3123 21.2602 15.3123 22.0693Z" fill="black" stroke="black" stroke-width="3"/>
<path d="M38.75 25.5848C37.8427 24.9987 33.9113 23.534 32.3993 23.534Z" fill="black"/>
<path d="M38.75 25.5848C37.8427 24.9987 33.9113 23.534 32.3993 23.534" stroke="black" stroke-width="3" stroke-linecap="round"/>
<path d="M35.7251 30.2722C34.818 29.6861 32.7009 28.2214 31.189 28.2214Z" fill="black"/>
<path d="M35.7251 30.2722C34.818 29.6861 32.7009 28.2214 31.189 28.2214" stroke="black" stroke-width="3" stroke-linecap="round"/>
<path d="M1.25 25.5848C2.15724 24.9987 6.08862 23.534 7.60069 23.534Z" fill="black"/>
<path d="M1.25 25.5848C2.15724 24.9987 6.08862 23.534 7.60069 23.534" stroke="black" stroke-width="3" stroke-linecap="round"/>
<path d="M4.27393 30.2722C5.18118 29.6861 7.29807 28.2214 8.81013 28.2214Z" fill="black"/>
<path d="M4.27393 30.2722C5.18118 29.6861 7.29807 28.2214 8.81013 28.2214" stroke="black" stroke-width="3" stroke-linecap="round"/>
</g>
<defs>
<clipPath id="clip0_93_8">
<rect width="40" height="40" fill="white"/>
</clipPath>
</defs>
</svg>
