<svg width="48" height="48" viewBox="0 0 48 48" fill="none" xmlns="http://www.w3.org/2000/svg">
<path fill-rule="evenodd" clip-rule="evenodd" d="M5.51081 0.0243125C9.62947 0.671626 13.9377 2.61695 17.1868 5.23724C19.3405 4.56159 21.6499 4.1962 24.0477 4.1962C26.4617 4.1962 28.786 4.5665 30.952 5.25081C34.2786 2.67461 38.3875 0.656852 42.5635 0.0273342C43.4525 -0.103761 44.3771 0.346206 44.783 1.15916C46.4121 5.01385 46.4675 9.61024 45.4655 13.6239L45.45 13.6861C45.1816 14.7632 44.8346 16.1552 43.7207 16.6234C44.5487 18.6618 45.0041 20.8725 45.0041 23.1935C45.0041 29.0115 42.6188 34.9973 40.48 40.3641L40.2635 40.9072C38.9649 44.1704 36.0591 46.4179 32.6922 47.0442L27.9349 47.9291C26.468 48.2019 25.0038 47.672 24.0477 46.6039C23.0917 47.672 21.6277 48.2019 20.1607 47.9291L15.4033 47.0442C12.0366 46.4179 9.13075 44.1704 7.83198 40.9072L7.61564 40.3641C5.47688 34.9973 3.09144 29.0115 3.09144 23.1935C3.09144 20.8725 3.54688 18.6618 4.37493 16.6234C3.25997 16.1547 2.92194 14.7965 2.65316 13.7165L2.6301 13.6239C1.67284 9.78946 1.48884 4.81915 3.31267 1.15916C3.71642 0.35055 4.6192 -0.11439 5.51081 0.0243125ZM12.6994 7.21928C10.3321 8.60463 8.27751 10.4189 6.68271 12.5512C6.05819 9.99793 6.05115 7.15844 6.60146 4.58986C8.72531 5.20421 10.8037 6.07524 12.6994 7.21928ZM41.4128 12.5513C39.8285 10.4328 37.7903 8.6283 35.4425 7.24646C37.3265 6.08603 39.3549 5.15636 41.4882 4.5626C42.0459 7.13842 42.0394 9.98968 41.4128 12.5513ZM17.4541 9.58311C19.4725 8.81906 21.7 8.39326 24.0477 8.39326C26.3957 8.39326 28.6231 8.81906 30.6414 9.58311C36.7376 11.8908 40.8128 17.2034 40.8128 23.1935C40.8128 28.2614 38.6943 33.5497 36.8024 38.2723C36.6567 38.636 36.5121 38.9967 36.3703 39.3532C35.6347 41.2014 33.9622 42.539 31.9267 42.9176L27.1694 43.8025L25.9589 41.1087C25.6205 40.3555 24.8724 39.8712 24.0477 39.8712C23.2231 39.8712 22.4752 40.3555 22.1367 41.1087L20.9261 43.8025L16.1688 42.9176C14.1334 42.539 12.4609 41.2014 11.7254 39.3532C11.5836 38.9971 11.4395 38.6372 11.294 38.274C9.40205 33.5514 7.28271 28.2614 7.28271 23.1935C7.28271 17.2034 11.3581 11.8908 17.4541 9.58311ZM20.9043 31.477C20.1104 31.477 19.3849 31.9261 19.0299 32.6371C18.6749 33.3481 18.7515 34.1988 19.2278 34.8347L22.3712 39.0317C22.7671 39.5602 23.388 39.8712 24.0477 39.8712C24.7074 39.8712 25.3284 39.5602 25.7242 39.0317L28.8677 34.8347C29.344 34.1988 29.4205 33.3481 29.0655 32.6371C28.7105 31.9261 27.985 31.477 27.1912 31.477H20.9043ZM19.0629 21.2389C19.0629 22.9775 17.6555 24.3867 15.9195 24.3867C14.1834 24.3867 12.776 22.9775 12.776 21.2389C12.776 19.5005 14.1834 18.0912 15.9195 18.0912C17.6555 18.0912 19.0629 19.5005 19.0629 21.2389ZM32.4303 24.1322C34.1663 24.1322 35.5737 22.723 35.5737 20.9844C35.5737 19.2459 34.1663 17.8366 32.4303 17.8366C30.6942 17.8366 29.2868 19.2459 29.2868 20.9844C29.2868 22.723 30.6942 24.1322 32.4303 24.1322Z" fill="black"/>
</svg>
