<svg width="40" height="40" viewBox="0 0 40 40" fill="none" xmlns="http://www.w3.org/2000/svg">
<path d="M28.9564 30.3485C29.2582 32.0458 27.9502 33.6102 26.188 33.6594C25.7632 33.6714 25.0999 33.4969 23.7733 33.1478C23.015 32.9484 22.636 32.8486 22.2569 32.775C20.7668 32.4854 19.2329 32.4854 17.7428 32.775C17.3638 32.8486 16.9847 32.9484 16.2266 33.1478C14.8999 33.4969 14.2365 33.6714 13.8117 33.6594C12.0496 33.6102 10.7415 32.0458 11.0433 30.3485C11.1161 29.9394 11.4233 29.3389 12.0377 28.1381L13.3559 25.5619C15.7344 20.9131 16.9237 18.5888 18.6355 18.035C19.5214 17.7484 20.4784 17.7484 21.3643 18.035C23.0761 18.5888 24.2654 20.9131 26.644 25.5619" stroke="black" stroke-width="2.7" stroke-linecap="round"/>
<path d="M11.217 11.3796C11.8348 13.7278 13.5815 15.2915 15.1184 14.872C16.6553 14.4525 17.4004 12.2088 16.7827 9.86047C16.165 7.51217 14.4183 5.94856 12.8814 6.36804C11.3445 6.78753 10.5993 9.03126 11.217 11.3796Z" stroke="black" stroke-width="2.7"/>
<path d="M28.7828 11.3796C28.1651 13.7278 26.4185 15.2915 24.8814 14.872C23.3445 14.4525 22.5995 12.2088 23.2172 9.86047C23.8349 7.51217 25.5815 5.94856 27.1185 6.36804C28.6554 6.78753 29.4005 9.03126 28.7828 11.3796Z" stroke="black" stroke-width="2.7"/>
<path d="M5.30249 21.1278C5.97749 22.8631 7.56452 23.9171 8.8472 23.482C10.1299 23.0469 10.6225 21.2874 9.94751 19.5522C9.27251 17.8169 7.68548 16.7629 6.4028 17.1981C5.1201 17.6332 4.62749 19.3926 5.30249 21.1278Z" stroke="black" stroke-width="2.7"/>
<path d="M34.6974 21.1278C34.0224 22.8631 32.4354 23.9171 31.1527 23.482C29.8701 23.0469 29.3775 21.2874 30.0525 19.5522C30.7275 17.8169 32.3145 16.7629 33.5971 17.1981C34.8798 17.6332 35.3724 19.3926 34.6974 21.1278Z" stroke="black" stroke-width="2.7"/>
</svg>
